<svg width="30" height="30" viewBox="0 0 30 30" fill="none" xmlns="http://www.w3.org/2000/svg">
<path fill-rule="evenodd" clip-rule="evenodd" d="M26.0953 0C22.4413 0 18.9252 1.39556 16.2658 3.90143L14.5265 5.54034C13.808 6.2173 13.1222 6.92695 12.471 7.66683H5.75492C4.93531 7.66683 4.17579 8.09686 3.75411 8.79967L0.142509 14.819C-0.0238867 15.0963 -0.0458872 15.437 0.0834558 15.7334C0.212799 16.0299 0.477514 16.2454 0.793991 16.312L6.88958 17.5953C6.94115 17.661 6.99821 17.7235 7.0607 17.7821L9.722 20.2796L12.2179 22.9394C12.2766 23.0019 12.3391 23.059 12.4048 23.1105L13.6881 29.2062C13.7547 29.5226 13.9703 29.7874 14.2667 29.9167C14.5632 30.0461 14.9038 30.0241 15.1812 29.8577L21.2005 26.2461C21.9033 25.8244 22.3333 25.0649 22.3333 24.2452V17.5287C23.0735 16.8772 23.7835 16.1909 24.4607 15.4721L26.0981 13.7339C28.6043 11.0735 29.9996 7.55624 29.9985 3.90128L29.998 2.33265C29.9977 1.04425 28.9531 0 27.6647 0H26.0953ZM20.3333 19.1496C19.8898 19.4801 19.4374 19.7992 18.9766 20.1064L14.4513 23.1232L15.356 27.4204L20.1715 24.5311C20.2719 24.4708 20.3333 24.3623 20.3333 24.2452V19.1496ZM6.8768 15.5488L9.89463 11.0221C10.2015 10.5618 10.5202 10.1099 10.8503 9.66683H5.75492C5.63784 9.66683 5.52933 9.72826 5.46909 9.82866L2.57979 14.6442L6.8768 15.5488ZM17.6374 5.35704C19.9257 3.20083 22.9512 2 26.0953 2H27.6647C27.8488 2 27.998 2.14918 27.998 2.33324L27.9985 3.90187C27.9994 7.04683 26.7989 10.0733 24.6424 12.3625L23.0049 14.1007C21.4625 15.738 19.7388 17.1945 17.8672 18.4423L13.4832 21.3649L11.1587 18.8879C11.1442 18.8724 11.1292 18.8575 11.1138 18.843L8.63512 16.5169L11.5587 12.1315C12.8059 10.2607 14.2617 8.53783 15.898 6.99595L17.6374 5.35704ZM22.3333 9.66667C22.3333 10.7712 21.4379 11.6667 20.3333 11.6667C19.2288 11.6667 18.3333 10.7712 18.3333 9.66667C18.3333 8.5621 19.2288 7.66667 20.3333 7.66667C21.4379 7.66667 22.3333 8.5621 22.3333 9.66667ZM7.66664 27C8.86643 25.8002 8.86646 23.5332 7.66667 22.3334C6.46689 21.1336 4.19976 21.1336 2.99997 22.3334C1.38825 23.9451 1.07332 27.535 1.01355 28.6577C1.00354 28.8457 1.1543 28.9964 1.34233 28.9864C2.46503 28.9266 6.05518 28.6115 7.66664 27Z" fill="#8E8E8F"/>
</svg>
